REM DIRINDEX 1\2,1\3,1\4,1\5
REM DIRNAME "folder01","folder02","folder03","folder04","folder05"
TITLE ""
FILE "P1Q_t_1120-1129.mp3" MP3
  TRACK 01 AUDIO
    TITLE "3:cjc173_4320"
    INDEX 01 00:00:00
  TRACK 02 AUDIO
    TITLE "0:"
    INDEX 01 00:01:23
  TRACK 03 AUDIO
    TITLE "4:cjc173_4321"
    INDEX 01 00:01:43
  TRACK 04 AUDIO
    TITLE "0:"
    INDEX 01 00:05:10
  TRACK 05 AUDIO
    TITLE "5:cjc173_4322"
    INDEX 01 00:05:29
  TRACK 06 AUDIO
    TITLE "0:"
    INDEX 01 00:09:58
  TRACK 07 AUDIO
    TITLE "3:cjc173_4323"
    INDEX 01 00:10:30
  TRACK 08 AUDIO
    TITLE "0:"
    INDEX 01 00:11:36
  TRACK 09 AUDIO
    TITLE "4:cjc173_4324"
    INDEX 01 00:11:57
  TRACK 10 AUDIO
    TITLE "0:"
    INDEX 01 00:15:22
  TRACK 11 AUDIO
    TITLE "5:cjc173_4325"
    INDEX 01 00:15:41
  TRACK 12 AUDIO
    TITLE "0:"
    INDEX 01 00:20:19
  TRACK 13 AUDIO
    TITLE "3:cjc173_4326"
    INDEX 01 00:20:64
  TRACK 14 AUDIO
    TITLE "0:"
    INDEX 01 00:21:73
  TRACK 15 AUDIO
    TITLE "4:cjc173_4327"
    INDEX 01 00:22:18
  TRACK 16 AUDIO
    TITLE "0:"
    INDEX 01 00:23:66
  TRACK 17 AUDIO
    TITLE "5:cjc173_4328"
    INDEX 01 00:24:11
  TRACK 18 AUDIO
    TITLE "0:"
    INDEX 01 00:28:63
  TRACK 19 AUDIO
    TITLE "3:cjc173_4329"
    INDEX 01 00:29:34
  TRACK 20 AUDIO
    TITLE "0:"
    INDEX 01 00:30:43
  TRACK 21 AUDIO
    TITLE "4:cjc173_4330"
    INDEX 01 00:30:64
  TRACK 22 AUDIO
    TITLE "0:"
    INDEX 01 00:33:67
  TRACK 23 AUDIO
    TITLE "5:cjc173_4331"
    INDEX 01 00:34:13
  TRACK 24 AUDIO
    TITLE "0:"
    INDEX 01 00:37:45
  TRACK 25 AUDIO
    TITLE "3:cjc173_4332"
    INDEX 01 00:38:17
  TRACK 26 AUDIO
    TITLE "0:"
    INDEX 01 00:39:32
  TRACK 27 AUDIO
    TITLE "4:cjc173_4333"
    INDEX 01 00:39:53
  TRACK 28 AUDIO
    TITLE "0:"
    INDEX 01 00:42:54
  TRACK 29 AUDIO
    TITLE "5:cjc173_4334"
    INDEX 01 00:42:73
  TRACK 30 AUDIO
    TITLE "0:"
    INDEX 01 00:48:05
  TRACK 31 AUDIO
    TITLE "3:cjc173_4335"
    INDEX 01 00:48:52
  TRACK 32 AUDIO
    TITLE "0:"
    INDEX 01 00:49:66
  TRACK 33 AUDIO
    TITLE "4:cjc173_4336"
    INDEX 01 00:50:12
  TRACK 34 AUDIO
    TITLE "0:"
    INDEX 01 00:51:61
  TRACK 35 AUDIO
    TITLE "5:cjc173_4337"
    INDEX 01 00:52:07
  TRACK 36 AUDIO
    TITLE "0:"
    INDEX 01 00:56:01
  TRACK 37 AUDIO
    TITLE "3:cjc173_4338"
    INDEX 01 00:56:46
  TRACK 38 AUDIO
    TITLE "0:"
    INDEX 01 00:57:75
  TRACK 39 AUDIO
    TITLE "4:cjc173_4339"
    INDEX 01 00:58:19
  TRACK 40 AUDIO
    TITLE "0:"
    INDEX 01 01:01:18
  TRACK 41 AUDIO
    TITLE "5:cjc173_4340"
    INDEX 01 01:01:39
  TRACK 42 AUDIO
    TITLE "0:"
    INDEX 01 01:06:31
  TRACK 43 AUDIO
    TITLE "3:cjc173_4341"
    INDEX 01 01:07:03
  TRACK 44 AUDIO
    TITLE "0:"
    INDEX 01 01:08:36
  TRACK 45 AUDIO
    TITLE "4:cjc173_4342"
    INDEX 01 01:08:55
  TRACK 46 AUDIO
    TITLE "0:"
    INDEX 01 01:12:02
  TRACK 47 AUDIO
    TITLE "5:cjc173_4343"
    INDEX 01 01:12:22
  TRACK 48 AUDIO
    TITLE "0:"
    INDEX 01 01:17:17
  TRACK 49 AUDIO
    TITLE "3:cjc173_4344"
    INDEX 01 01:17:64
  TRACK 50 AUDIO
    TITLE "0:"
    INDEX 01 01:18:59
  TRACK 51 AUDIO
    TITLE "4:cjc173_4345"
    INDEX 01 01:19:04
  TRACK 52 AUDIO
    TITLE "0:"
    INDEX 01 01:22:10
  TRACK 53 AUDIO
    TITLE "5:cjc173_4346"
    INDEX 01 01:22:32
  TRACK 54 AUDIO
    TITLE "0:"
    INDEX 01 01:26:61
  TRACK 55 AUDIO
    TITLE "3:cjc173_4347"
    INDEX 01 01:27:29
  TRACK 56 AUDIO
    TITLE "0:"
    INDEX 01 01:28:48
  TRACK 57 AUDIO
    TITLE "4:cjc173_4348"
    INDEX 01 01:28:70
  TRACK 58 AUDIO
    TITLE "0:"
    INDEX 01 01:31:40
  TRACK 59 AUDIO
    TITLE "5:cjc173_4349"
    INDEX 01 01:31:60
  TRACK 60 AUDIO
    TITLE "0:"
    INDEX 01 01:34:72
